<svg width="162" height="39" viewBox="0 0 162 39" fill="none" xmlns="http://www.w3.org/2000/svg">
<circle cx="14.1608" cy="14.1608" r="12.5874" stroke="#c06e45" stroke-width="3.14685"/>
<path d="M40.0883 23.8319V6.809H43.0844V21.3125L42.1765 20.7451L53.5705 6.809H56.8162L42.7666 23.8319H40.0883ZM48.1913 15.2751L50.3021 13.2096L57.0659 23.8319H53.6386L48.1913 15.2751ZM58.9732 6.809H61.9692V23.8319H58.9732V6.809ZM71.2706 8.19353H74.2667V23.8319H71.2706V8.19353ZM64.2345 6.809H81.3028V9.44188H64.2345V6.809ZM100.644 17.0909C100.492 18.483 100 19.7162 99.1682 20.7905C98.3511 21.8497 97.2768 22.6744 95.9452 23.2645C94.6136 23.8546 93.0929 24.1497 91.3831 24.1497C89.4765 24.1497 87.8045 23.779 86.367 23.0375C84.9295 22.2961 83.8097 21.2672 83.0078 19.9507C82.2058 18.6191 81.8048 17.0757 81.8048 15.3205C81.8048 13.5652 82.2058 12.0294 83.0078 10.7129C83.8097 9.38136 84.9295 8.34485 86.367 7.6034C87.8045 6.86196 89.4765 6.49124 91.3831 6.49124C93.0929 6.49124 94.6136 6.7863 95.9452 7.37643C97.2768 7.96656 98.3511 8.79123 99.1682 9.85043C100 10.9096 100.492 12.1429 100.644 13.5501H97.6248C97.4584 12.6422 97.0952 11.8629 96.5353 11.2123C95.9906 10.5616 95.2794 10.0623 94.4018 9.71425C93.5242 9.35109 92.5104 9.16951 91.3604 9.16951C90.0288 9.16951 88.8712 9.41918 87.8877 9.91852C86.9193 10.4179 86.1703 11.129 85.6407 12.0521C85.111 12.9751 84.8462 14.0646 84.8462 15.3205C84.8462 16.5764 85.111 17.6659 85.6407 18.5889C86.1703 19.5119 86.9193 20.2231 87.8877 20.7224C88.8712 21.2218 90.0288 21.4714 91.3604 21.4714C92.5104 21.4714 93.5242 21.2974 94.4018 20.9494C95.2794 20.6014 95.9906 20.102 96.5353 19.4514C97.0952 18.7856 97.4584 17.9987 97.6248 17.0909H100.644ZM103.392 6.809H106.388V23.8319H103.392V6.809ZM117.238 6.809H120.234V23.8319H117.238V6.809ZM105.004 13.9359H118.668V16.5688H105.004V13.9359ZM137.646 14.0721V16.5688H125.753V14.0721H137.646ZM127.727 15.3205L126.524 22.924L125.095 21.2445H138.304V23.8319H123.46L124.822 15.3205L123.46 6.809H138.191V9.39649H125.095L126.524 7.71689L127.727 15.3205ZM157.203 22.0162L155.977 22.1523V6.809H158.882V23.8319H155.069L143.13 8.4886L144.333 8.35241V23.8319H141.428V6.809H145.332L157.203 22.0162Z" fill="#16181B"/>
<path d="M21.7601 29.239H23.0211V33.1093L22.8271 33.4682V34.4867L23.0211 34.8941V36.708H21.7601V29.239ZM22.5167 33.9629C22.6396 33.3809 22.8433 32.8765 23.1278 32.4497C23.4124 32.0164 23.7616 31.6802 24.1754 31.4409C24.5958 31.2016 25.0614 31.082 25.5722 31.082C26.109 31.082 26.5843 31.2049 26.9981 31.4506C27.412 31.6899 27.7353 32.0261 27.9681 32.4594C28.2009 32.8862 28.3173 33.3874 28.3173 33.9629C28.3173 34.532 28.2009 35.0331 27.9681 35.4664C27.7353 35.8997 27.412 36.2392 26.9981 36.4849C26.5843 36.7242 26.109 36.8438 25.5722 36.8438C25.0614 36.8438 24.5958 36.7242 24.1754 36.4849C23.7616 36.2456 23.4124 35.9094 23.1278 35.4761C22.8433 35.0428 22.6396 34.5384 22.5167 33.9629ZM27.0369 33.9629C27.0369 33.5943 26.9593 33.271 26.8041 32.9929C26.6554 32.7084 26.4485 32.4885 26.1833 32.3333C25.9182 32.1716 25.6143 32.0908 25.2715 32.0908C24.9288 32.0908 24.6055 32.1716 24.3015 32.3333C24.0041 32.4885 23.7422 32.7084 23.5158 32.9929C23.2895 33.271 23.1052 33.5943 22.9629 33.9629C23.1052 34.3315 23.2895 34.6581 23.5158 34.9426C23.7422 35.2207 24.0041 35.4405 24.3015 35.6022C24.6055 35.7574 24.9288 35.835 25.2715 35.835C25.6143 35.835 25.9182 35.7574 26.1833 35.6022C26.4485 35.4405 26.6554 35.2207 26.8041 34.9426C26.9593 34.6581 27.0369 34.3315 27.0369 33.9629ZM30.4206 38.4443C30.0973 38.4443 29.8031 38.4023 29.5379 38.3182C29.2793 38.2406 29.0368 38.1307 28.8104 37.9884V37.0281C29.0562 37.1833 29.289 37.2965 29.5088 37.3676C29.7352 37.4387 29.9874 37.4743 30.2654 37.4743C30.5306 37.4743 30.7666 37.4129 30.9735 37.29C31.1805 37.1736 31.3518 36.9667 31.4876 36.6692L33.9611 31.2178H35.2997L32.4576 37.096C32.3024 37.4193 32.1181 37.678 31.9047 37.872C31.6978 38.0725 31.4682 38.218 31.216 38.3085C30.9703 38.399 30.7052 38.4443 30.4206 38.4443ZM31.0511 36.5334L28.5291 31.2178H29.9162L32.3024 36.5334H31.0511ZM37.9987 34.3412H39.2985C39.3373 34.6322 39.4569 34.8876 39.6574 35.1075C39.8643 35.3274 40.1359 35.4987 40.4722 35.6216C40.8084 35.738 41.1964 35.7962 41.6362 35.7962C42.2893 35.7962 42.8066 35.696 43.1882 35.4955C43.5697 35.2886 43.7605 35.0105 43.7605 34.6613C43.7605 34.3768 43.6505 34.1634 43.4307 34.0211C43.2108 33.8788 42.8131 33.7721 42.2376 33.701L40.6662 33.4973C39.7867 33.3809 39.1465 33.1643 38.7456 32.8474C38.3511 32.5241 38.1539 32.0682 38.1539 31.4797C38.1539 31.0335 38.2864 30.6487 38.5516 30.3254C38.8232 29.9956 39.2047 29.7434 39.6962 29.5688C40.1876 29.3877 40.7632 29.2972 41.4228 29.2972C42.0759 29.2972 42.6547 29.3942 43.1591 29.5882C43.6635 29.7822 44.0644 30.0538 44.3619 30.403C44.6658 30.7457 44.8307 31.1499 44.8566 31.6155H43.5568C43.5244 31.3568 43.4145 31.1337 43.227 30.9462C43.0459 30.7587 42.8002 30.6132 42.4898 30.5097C42.1794 30.3998 41.814 30.3448 41.3937 30.3448C40.7987 30.3448 40.3234 30.4418 39.9678 30.6358C39.6121 30.8298 39.4343 31.0949 39.4343 31.4312C39.4343 31.6899 39.5377 31.8903 39.7447 32.0326C39.9581 32.1684 40.3267 32.2719 40.8505 32.343L42.4413 32.5661C43.0944 32.6566 43.6085 32.7795 43.9836 32.9347C44.3651 33.0834 44.6367 33.2871 44.7984 33.5458C44.96 33.798 45.0409 34.1246 45.0409 34.5255C45.0409 34.9911 44.8986 35.3985 44.6141 35.7477C44.3295 36.0969 43.9286 36.3685 43.4113 36.5625C42.9004 36.75 42.3022 36.8438 41.6168 36.8438C40.9184 36.8438 40.3008 36.7403 39.7641 36.5334C39.2338 36.32 38.8135 36.0258 38.5031 35.6507C38.1927 35.2756 38.0245 34.8391 37.9987 34.3412ZM47.4148 33.5846C47.4148 34.0179 47.5021 34.3929 47.6767 34.7098C47.8513 35.0267 48.1003 35.2724 48.4236 35.447C48.7534 35.6151 49.1446 35.6992 49.5973 35.6992C50.0564 35.6992 50.4477 35.6151 50.771 35.447C51.0943 35.2724 51.3433 35.0267 51.5179 34.7098C51.6925 34.3929 51.7798 34.0179 51.7798 33.5846V29.433H53.0602V33.6331C53.0602 34.2733 52.9147 34.8359 52.6237 35.3209C52.3327 35.7994 51.9285 36.1745 51.4112 36.4461C50.8939 36.7112 50.2892 36.8438 49.5973 36.8438C48.9118 36.8438 48.3072 36.7112 47.7834 36.4461C47.2661 36.1745 46.8619 35.7994 46.5709 35.3209C46.2799 34.8359 46.1344 34.2733 46.1344 33.6331V29.433H47.4148V33.5846ZM55.4882 32.7116H58.4467C58.8735 32.7116 59.2097 32.6146 59.4555 32.4206C59.7077 32.2266 59.8338 31.9615 59.8338 31.6252C59.8338 31.2825 59.7077 31.0173 59.4555 30.8298C59.2097 30.6358 58.8735 30.5388 58.4467 30.5388H55.3039L55.8762 29.821V36.708H54.5958V29.433H58.5631C59.0739 29.433 59.5201 29.5268 59.9017 29.7143C60.2897 29.8954 60.5904 30.1508 60.8038 30.4806C61.0236 30.8039 61.1336 31.1855 61.1336 31.6252C61.1336 32.052 61.0236 32.4303 60.8038 32.7601C60.5904 33.0834 60.2897 33.3389 59.9017 33.5264C59.5201 33.7075 59.0739 33.798 58.5631 33.798H55.4882V32.7116ZM56.9238 33.3033H58.4273L61.3179 36.708H59.7853L56.9238 33.3033ZM63.2576 35.0396V33.9823H68.3404V35.0396H63.2576ZM66.6332 29.433L70.1252 36.708H68.7575L65.5856 29.918H66.0803L62.9084 36.708H61.5407L65.0327 29.433H66.6332Z" fill="#16181B"/>
<path d="M14.1611 23.2117V6.18878H17.1572V20.6923L16.2493 20.1249L27.6433 6.18878H30.889L16.8394 23.2117H14.1611ZM22.2641 14.6549L24.3749 12.5894L31.1387 23.2117H27.7114L22.2641 14.6549Z" fill="#16181B"/>
<path d="M34.4647 23.3932C34.1167 23.3932 33.7989 23.31 33.5114 23.1436C33.239 22.9771 33.0196 22.7577 32.8532 22.4854C32.6867 22.1979 32.6035 21.8801 32.6035 21.5321C32.6035 21.184 32.6867 20.8739 32.8532 20.6015C33.0196 20.314 33.239 20.087 33.5114 19.9206C33.7989 19.7541 34.1167 19.6709 34.4647 19.6709C34.8127 19.6709 35.1229 19.7541 35.3953 19.9206C35.6828 20.087 35.9097 20.314 36.0762 20.6015C36.2426 20.8739 36.3259 21.184 36.3259 21.5321C36.3259 21.8801 36.2426 22.1979 36.0762 22.4854C35.9097 22.7577 35.6828 22.9771 35.3953 23.1436C35.1229 23.31 34.8127 23.3932 34.4647 23.3932Z" fill="#16181B"/>
</svg>
